<?xml version="1.0" encoding="UTF-8" standalone="no" ?>
<!DOCTYPE svg PUBLIC "-//W3C//DTD SVG 1.1//EN" "http://www.w3.org/Graphics/SVG/1.1/DTD/svg11.dtd">
<svg xmlns="http://www.w3.org/2000/svg" xmlns:xlink="http://www.w3.org/1999/xlink" version="1.1" width="1089" height="1089" viewBox="0 0 500 500" xml:space="preserve">
<desc>Created with Fabric.js 4.6.0</desc>
<defs>
</defs>
<g transform="matrix(34.25 0 0 34.25 248.87 248.87)" id="AQ81BLqBsOSlf3vCs-XFs"  >
<path style="stroke: none; stroke-width: 1; stroke-dasharray: none; stroke-linecap: butt; stroke-dashoffset: 0; stroke-linejoin: miter; stroke-miterlimit: 4; fill: rgb(255,255,255); fill-rule: nonzero; opacity: 1;" vector-effect="non-scaling-stroke"  transform=" translate(-8, -8)" d="M 15.25 8 C 15.25 8.414213562373096 14.914213562373096 8.75 14.5 8.75 L 8.75 8.75 L 8.75 14.5 C 8.75 14.914213562373096 8.414213562373096 15.25 8 15.25 C 7.585786437626905 15.25 7.25 14.914213562373096 7.25 14.5 L 7.25 8.75 L 1.5 8.75 C 1.0857864376269049 8.75 0.75 8.414213562373096 0.75 8 C 0.75 7.585786437626905 1.0857864376269049 7.25 1.5 7.25 L 7.25 7.25 L 7.25 1.5 C 7.25 1.0857864376269049 7.585786437626905 0.75 8 0.75 C 8.414213562373096 0.75 8.75 1.0857864376269046 8.75 1.4999999999999998 L 8.75 7.25 L 14.5 7.25 C 14.914213562373096 7.25 15.25 7.585786437626905 15.25 8 z" stroke-linecap="round" />
</g>
</svg>