<?xml version="1.0" encoding="UTF-8" standalone="no" ?>
<!DOCTYPE svg PUBLIC "-//W3C//DTD SVG 1.1//EN" "http://www.w3.org/Graphics/SVG/1.1/DTD/svg11.dtd">
<svg xmlns="http://www.w3.org/2000/svg" xmlns:xlink="http://www.w3.org/1999/xlink" version="1.1" width="1080" height="1080" viewBox="0 2.842170943040401e-14 499.99999999999994 499.99999999999994" xml:space="preserve">
<desc>Created with Fabric.js 4.6.0</desc>
<defs>
</defs>
<g transform="matrix(31.86 0 0 31.86 248.94 231.72)" id="ppWs7XMh1UjaNEYyPOaYX"  >
<path style="stroke: none; stroke-width: 1; stroke-dasharray: none; stroke-linecap: butt; stroke-dashoffset: 0; stroke-linejoin: miter; stroke-miterlimit: 4; fill: rgb(255,255,255); fill-rule: nonzero; opacity: 1;" vector-effect="non-scaling-stroke"  transform=" translate(-8, -8)" d="M 15.724 4.22 C 15.370087673117636 2.460327730936888 13.963362374931354 1.1037857248150087 12.191999999999998 0.8140000000000005 C 10.874419939029854 0.6039687055949925 9.534414625385498 1.022026685831912 8.57 1.9440000000000004 C 8.248728129455028 2.2427754286611297 7.751271870544973 2.2427754286611297 7.430000000000001 1.944 C 5.78911438534816 0.3568718827600561 3.1903573873727638 0.3402869402789084 1.5293485466581105 1.9063427796322574 C -0.13166029405654278 3.4723986189856064 -0.26790316601705566 6.067634807597954 1.2200000000000015 7.799 L 7.136000000000001 14.849 C 7.350325144154075 15.103995474460447 7.6663964734320995 15.251223347027477 7.999500000000001 15.251223347027477 C 8.332603526567903 15.251223347027477 8.648674855845927 15.103995474460445 8.863000000000001 14.849 L 14.779000000000002 7.799 C 15.626646108103811 6.815081302824214 15.97508140594331 5.496189175446553 15.724000000000002 4.222000000000001 z" stroke-linecap="round" />
</g>
</svg>