<?xml version="1.0" encoding="UTF-8" standalone="no" ?>
<!DOCTYPE svg PUBLIC "-//W3C//DTD SVG 1.1//EN" "http://www.w3.org/Graphics/SVG/1.1/DTD/svg11.dtd">
<svg xmlns="http://www.w3.org/2000/svg" xmlns:xlink="http://www.w3.org/1999/xlink" version="1.1" width="1080" height="1080" viewBox="0 2.842170943040401e-14 499.99999999999994 499.99999999999994" xml:space="preserve">
<desc>Created with Fabric.js 4.6.0</desc>
<defs>
</defs>
<g transform="matrix(23.35 0 0 23.35 250.8 248.3)" id="ERJKX1RvUL1cmrXogCgSh"  >
<path style="stroke: none; stroke-width: 1; stroke-dasharray: none; stroke-linecap: butt; stroke-dashoffset: 0; stroke-linejoin: miter; stroke-miterlimit: 4; fill: rgb(255,255,255); fill-rule: nonzero; opacity: 1;" vector-effect="non-scaling-stroke"  transform=" translate(-11.82, -11.86)" d="M 10.533 1.279 C 5.353 1.279 1.1259999999999994 5.419 1.1259999999999994 10.558 C 1.1259999999999994 15.697 5.351999999999999 19.837 10.533 19.837 C 12.767 19.837 14.823 19.067 16.439999999999998 17.779 L 20.793 22.131999999999998 C 21.044074470261535 22.39195658445308 21.41587789214218 22.4962125971983 21.765507323893267 22.404697156582877 C 22.115136755644354 22.313181715967456 22.38818171596746 22.04013675564435 22.47969715658288 21.690507323893264 C 22.571212597198304 21.340877892142178 22.466956584453083 20.969074470261532 22.207 20.717999999999996 L 17.863 16.373999999999995 C 19.20791518351777 14.734330285754435 19.94202332944507 12.678686098603164 19.939999999999998 10.558 C 19.939999999999998 5.417999999999997 15.713999999999999 1.277999999999997 10.532999999999998 1.277999999999997 z M 3.1259999999999994 10.558 C 3.1259999999999994 6.552 6.427999999999999 3.2779999999999996 10.533 3.2779999999999996 C 14.638 3.2779999999999996 17.939999999999998 6.552 17.939999999999998 10.558 C 17.939999999999998 14.564 14.637999999999998 17.837 10.532999999999998 17.837 C 6.427999999999997 17.837 3.1259999999999977 14.564 3.1259999999999977 10.556999999999999 z" stroke-linecap="round" />
</g>
</svg>